<?xml version="1.0" encoding="UTF-8" standalone="no"?>
<svg
   xmlns:dc="http://purl.org/dc/elements/1.1/"
   xmlns:cc="http://creativecommons.org/ns#"
   xmlns:rdf="http://www.w3.org/1999/02/22-rdf-syntax-ns#"
   xmlns:svg="http://www.w3.org/2000/svg"
   xmlns="http://www.w3.org/2000/svg"
   xmlns:sodipodi="http://sodipodi.sourceforge.net/DTD/sodipodi-0.dtd"
   xmlns:inkscape="http://www.inkscape.org/namespaces/inkscape"
   id="svg2"
   version="1.1"
   inkscape:version="0.48.4 r9939"
   width="48"
   height="48"
   sodipodi:docname="ClearSans-Bold-webfont.svg">
  <defs
     id="defs27" />
  <sodipodi:namedview
     pagecolor="#ffffff"
     bordercolor="#666666"
     borderopacity="1"
     objecttolerance="10"
     gridtolerance="10"
     guidetolerance="10"
     inkscape:pageopacity="0"
     inkscape:pageshadow="2"
     inkscape:window-width="1301"
     inkscape:window-height="744"
     id="namedview25"
     showgrid="false"
     inkscape:zoom="8.9419545"
     inkscape:cx="24"
     inkscape:cy="24"
     inkscape:window-x="65"
     inkscape:window-y="24"
     inkscape:window-maximized="1"
     inkscape:current-layer="layer1" />
  <metadata
     id="metadata4">
    <rdf:RDF>
      <cc:Work
         rdf:about="">
        <dc:format>image/svg+xml</dc:format>
        <dc:type
           rdf:resource="http://purl.org/dc/dcmitype/StillImage" />
        <dc:title></dc:title>
      </cc:Work>
    </rdf:RDF>
  </metadata>
  <g
     inkscape:label="Layer 1"
     inkscape:groupmode="layer"
     id="layer1"
     transform="translate(0,-2008.7244)">
    <g
       id="g3793">
      <path
         inkscape:connector-curvature="0"
         id="path17"
         d="m 24.030068,2017.7375 q -0.149258,-0.7687 0.06569,-1.3302 0.214947,-0.5615 0.773775,-0.9655 0.558793,-0.4041 1.688972,-0.7445 l 1.488444,-0.4386 -0.06262,-0.3226 q -0.117263,-0.6038 -0.524235,-0.7561 -0.406971,-0.1523 -1.106869,-0.016 -0.576403,0.1119 -0.954251,0.3846 -0.377826,0.2727 -0.507527,0.6682 l -1.551095,-0.6174 q 0.245088,-0.6812 0.957164,-1.1577 0.712076,-0.4766 1.809979,-0.6898 1.681117,-0.3265 2.539521,0.1157 0.858459,0.4422 1.118301,1.7802 l 0.950063,4.8923 -1.626251,0.3158 -0.145226,-0.7479 q -0.863298,1.1645 -2.064092,1.3977 -1.193948,0.2319 -1.926575,-0.2774 -0.732626,-0.5093 -0.923164,-1.4904 z m 1.819957,-0.3817 q 0.09594,0.4939 0.405697,0.6226 0.309769,0.1284 0.762642,0.041 0.322497,-0.063 0.746386,-0.355 0.423853,-0.2924 0.797931,-0.7496 l -0.266502,-1.3723 -0.883015,0.2564 q -0.937715,0.268 -1.305159,0.6308 -0.367362,0.3632 -0.258082,0.926 z"
         style="color:#000000;fill:#edc22e;fill-opacity:1;fill-rule:nonzero;stroke:none;stroke-width:15;marker:none;visibility:visible;display:inline;overflow:visible;enable-background:accumulate" />
      <path
         inkscape:connector-curvature="0"
         id="path19"
         d="m 16.252113,2017.6742 q -0.355784,-1.8321 0.239557,-3.0015 0.595318,-1.1694 2.02941,-1.4479 0.507775,-0.098 1.08363,0.011 0.575876,0.1058 0.988448,0.3599 l -0.690242,-3.5543 1.770316,-0.3438 1.984134,10.2172 -1.626215,0.3158 -0.135939,-0.6999 q -0.412751,0.5146 -0.913743,0.8681 -0.50097,0.3537 -1.200869,0.4896 -1.358619,0.2638 -2.269647,-0.5776 -0.911041,-0.8412 -1.25884,-2.6321 z m 1.819958,-0.3818 q 0.201209,1.0361 0.669158,1.5577 0.468006,0.5215 1.20908,0.3776 0.439148,-0.085 0.856136,-0.3763 0.417008,-0.291 0.682198,-0.6488 l -0.611612,-3.1495 q -0.330661,-0.1992 -0.783778,-0.3142 -0.453118,-0.115 -0.885386,-0.031 -0.713624,0.1385 -1.026666,0.8367 -0.312988,0.6981 -0.10913,1.7478 z"
         style="color:#000000;fill:#edc22e;fill-opacity:1;fill-rule:nonzero;stroke:none;stroke-width:15;marker:none;visibility:visible;display:inline;overflow:visible;enable-background:accumulate" />
      <path
         inkscape:connector-curvature="0"
         id="path21"
         d="m 8.4539363,2019.1459 q -0.3544589,-1.8253 0.2819364,-2.9849 0.6363953,-1.1596 2.4341633,-1.5087 1.78404,-0.3464 2.808192,0.4907 1.024152,0.8371 1.37861,2.6624 0.349123,1.7977 -0.287271,2.9574 -0.636396,1.1596 -2.420438,1.5061 -3.4583136,0.6715 -4.1951927,-3.123 z m 1.8252177,-0.3545 q 0.223856,1.1527 0.710602,1.6244 0.486781,0.4715 1.358231,0.3023 0.857724,-0.1665 1.130527,-0.7785 0.272805,-0.6119 0.04626,-1.7785 -0.230535,-1.187 -0.70701,-1.6605 -0.47646,-0.4736 -1.34791,-0.3044 -0.864569,0.1679 -1.140263,0.8017 -0.275637,0.6339 -0.05044,1.7935 z"
         style="color:#000000;fill:#edc22e;fill-opacity:1;fill-rule:nonzero;stroke:none;stroke-width:15;marker:none;visibility:visible;display:inline;overflow:visible;enable-background:accumulate" />
      <path
         inkscape:connector-curvature="0"
         id="path23"
         d="m 2.649212,2022.9077 1.1375356,-1.1823 q 0.4078228,0.3766 0.8584588,0.4422 0.4506359,0.065 0.9309603,-0.028 1.2625755,-0.2452 1.1199774,-0.9795 -0.062624,-0.3224 -0.4533872,-0.4281 -0.3907987,-0.1057 -1.1884301,-0.143 -1.4954267,-0.037 -2.190603,-0.5003 -0.6951763,-0.4631 -0.8737396,-1.3826 -0.1852228,-0.9538 0.4256349,-1.7133 0.6108781,-0.7594 2.031245,-1.0352 0.9675283,-0.1879 1.765119,-0.022 0.7975898,0.1656 1.3154925,0.7059 l -1.1417682,1.1972 q -0.614698,-0.6354 -1.6851504,-0.4275 -0.5489174,0.1068 -0.7936157,0.35 -0.2446843,0.2432 -0.1873761,0.5384 0.05462,0.2813 0.3411357,0.4001 0.2865707,0.1189 1.070456,0.1588 1.2868764,0.063 1.8697765,0.2599 0.5828665,0.1966 0.9398985,0.5865 0.3569776,0.3899 0.4822244,1.035 0.1385862,0.7136 -0.1230735,1.2913 -0.2616257,0.5778 -0.8718347,0.9739 -0.6101688,0.3963 -1.4610132,0.5615 -2.2575206,0.4384 -3.3179229,-0.6587 z"
         style="color:#000000;fill:#edc22e;fill-opacity:1;fill-rule:nonzero;stroke:none;stroke-width:15;marker:none;visibility:visible;display:inline;overflow:visible;enable-background:accumulate" />
    </g>
    <g
       id="g3786"
       transform="translate(-0.55916187,-0.78282662)">
      <path
         transform="translate(9.3939194,2004.2511)"
         d="m 38.694,35.25111 c 0,9.573313 -7.760703,17.334017 -17.334017,17.334017 -9.573313,0 -17.3340164,-7.760704 -17.3340164,-17.334017 0,-9.573313 7.7607034,-17.334017 17.3340164,-17.334017 9.573314,0 17.334017,7.760704 17.334017,17.334017 z"
         sodipodi:ry="17.334017"
         sodipodi:rx="17.334017"
         sodipodi:cy="35.25111"
         sodipodi:cx="21.359983"
         id="path3772"
         style="color:#000000;fill:#edc22e;fill-opacity:1;fill-rule:nonzero;stroke:none;stroke-width:15;marker:none;visibility:visible;display:inline;overflow:visible;enable-background:accumulate"
         sodipodi:type="arc" />
      <path
         inkscape:connector-curvature="0"
         id="path7"
         d="m 23.033426,2039.4774 q 0,-2.4964 0.8815,-3.6807 0.881501,-1.1843 2.745399,-1.1843 1.877391,0 2.758857,1.1775 0.8815,1.1776 0.8815,3.674 0,2.51 -0.8815,3.6875 -0.881466,1.1776 -2.758857,1.1776 -1.863898,0 -2.745399,-1.1776 -0.8815,-1.1775 -0.8815,-3.674 z m 1.958117,0 q 0,1.6688 0.400387,2.446 0.400354,0.7772 1.268395,0.7772 0.86804,0 1.27514,-0.784 0.4071,-0.7839 0.4071,-2.4527 0,-1.6688 -0.4071,-2.4459 -0.4071,-0.7772 -1.27514,-0.7772 -0.868041,0 -1.268395,0.7839 -0.400387,0.7839 -0.400387,2.4527 z"
         style="color:#000000;fill:#f9f6f2;fill-opacity:1;fill-rule:nonzero;stroke:none;stroke-width:15;marker:none;visibility:visible;display:inline;overflow:visible;enable-background:accumulate" />
      <path
         inkscape:connector-curvature="0"
         id="path9"
         d="m 16.152361,2036.4023 q 0.571958,-0.8545 1.355899,-1.2179 0.783908,-0.3633 1.954744,-0.3633 1.439998,0 2.270998,0.6729 0.831035,0.6729 0.831035,1.8907 0,0.895 -0.326342,1.5712 -0.326375,0.6763 -0.928593,1.3122 -0.602251,0.6359 -1.50055,1.403 -0.898333,0.7671 -1.10691,0.9218 h 4.16519 v 1.7361 H 16.17928 v -1.588 q 1.096824,-0.9219 1.998496,-1.763 0.901674,-0.8411 1.392907,-1.3963 0.491199,-0.5551 0.7637,-1.0631 0.272537,-0.5081 0.272537,-1.0666 0,-0.4373 -0.329715,-0.693 -0.329715,-0.2557 -0.90842,-0.2557 -0.625763,0 -1.022777,0.2893 -0.397015,0.2893 -0.659431,0.6864 z"
         style="color:#000000;fill:#f9f6f2;fill-opacity:1;fill-rule:nonzero;stroke:none;stroke-width:15;marker:none;visibility:visible;display:inline;overflow:visible;enable-background:accumulate" />
      <path
         inkscape:connector-curvature="0"
         id="path11"
         d="m 30.622458,2042.7881 v -1.7496 l 4.548744,-6.0224 h 1.944657 v 6.1436 h 1.143916 v 1.6284 h -1.143916 v 1.5409 h -1.816806 v -1.5409 h -4.676595 z m 1.850438,-1.6284 h 2.826157 v -3.6539 z"
         style="color:#000000;fill:#f9f6f2;fill-opacity:1;fill-rule:nonzero;stroke:none;stroke-width:15;marker:none;visibility:visible;display:inline;overflow:visible;enable-background:accumulate" />
      <path
         inkscape:connector-curvature="0"
         id="path13"
         d="m 38.892051,2041.6105 q 0,-0.8276 0.467653,-1.4467 0.467652,-0.6191 1.254934,-0.9757 -0.753615,-0.3701 -1.127083,-0.8983 -0.373468,-0.5282 -0.373468,-1.1406 0,-1.2313 0.861327,-1.8773 0.861294,-0.646 2.402224,-0.646 1.50055,0 2.375304,0.6258 0.874753,0.6258 0.874753,1.8841 0,0.4172 -0.19849,0.7738 -0.198524,0.3566 -0.51478,0.646 -0.316255,0.2894 -0.962224,0.646 0.773821,0.3768 1.143916,0.7065 0.370094,0.3297 0.561871,0.7537 0.191777,0.4239 0.191777,0.9487 0,1.292 -0.898333,2.0052 -0.8983,0.7133 -2.573794,0.7133 -1.655322,0 -2.570454,-0.683 -0.915133,-0.683 -0.915133,-2.0355 z m 1.904278,0.014 q 0,0.5248 0.376807,0.8613 0.376841,0.3364 1.204502,0.3364 0.827661,0 1.201095,-0.3499 0.373468,-0.3499 0.373468,-0.8613 0,-0.5787 -0.386928,-0.9622 -0.386894,-0.3836 -1.187635,-0.7604 -0.854581,0.3768 -1.217928,0.7604 -0.363381,0.3835 -0.363381,0.9757 z m 0.174943,-4.5017 q 0,0.3028 0.134599,0.5114 0.134564,0.2086 0.44748,0.4408 0.312881,0.2321 0.824287,0.434 0.787281,-0.3433 1.090076,-0.6729 0.302796,-0.3298 0.302796,-0.6729 0,-0.4442 -0.322968,-0.7469 -0.323002,-0.3028 -1.069904,-0.3028 -0.800741,0 -1.103536,0.3028 -0.30283,0.3027 -0.30283,0.7065 z"
         style="color:#000000;fill:#f9f6f2;fill-opacity:1;fill-rule:nonzero;stroke:none;stroke-width:15;marker:none;visibility:visible;display:inline;overflow:visible;enable-background:accumulate" />
    </g>
    <path
       sodipodi:type="arc"
       style="color:#000000;fill:none;stroke:#edc22e;stroke-width:1;stroke-linecap:round;stroke-linejoin:round;stroke-miterlimit:4;stroke-opacity:1;stroke-dasharray:none;marker:none;visibility:visible;display:inline;overflow:visible;enable-background:accumulate"
       id="path3805"
       sodipodi:cx="30.753902"
       sodipodi:cy="30.330484"
       sodipodi:rx="19.570665"
       sodipodi:ry="19.570665"
       d="m 13.762729,20.619101 a 19.570665,19.570665 0 0 1 2.281164,-3.197008"
       transform="translate(0,2008.7244)"
       sodipodi:start="3.6608338"
       sodipodi:end="3.8618506"
       sodipodi:open="true" />
    <path
       sodipodi:open="true"
       sodipodi:end="3.9136744"
       sodipodi:start="3.601917"
       transform="translate(0,2008.7244)"
       d="m 11.717504,20.891233 a 21.248152,21.248152 0 0 1 3.812949,-5.384059"
       sodipodi:ry="21.248152"
       sodipodi:rx="21.248152"
       sodipodi:cy="30.330484"
       sodipodi:cx="30.753902"
       id="path3807"
       style="color:#000000;fill:none;stroke:#edc22e;stroke-width:1;stroke-linecap:round;stroke-linejoin:round;stroke-miterlimit:4;stroke-opacity:1;stroke-dasharray:none;marker:none;visibility:visible;display:inline;overflow:visible;enable-background:accumulate"
       sodipodi:type="arc" />
  </g>
</svg>
