<?xml version="1.0" encoding="UTF-8" standalone="no"?>
<!-- Created with Inkscape (http://www.inkscape.org/) -->

<svg
   xmlns:dc="http://purl.org/dc/elements/1.1/"
   xmlns:cc="http://creativecommons.org/ns#"
   xmlns:rdf="http://www.w3.org/1999/02/22-rdf-syntax-ns#"
   xmlns:svg="http://www.w3.org/2000/svg"
   xmlns="http://www.w3.org/2000/svg"
   xmlns:sodipodi="http://sodipodi.sourceforge.net/DTD/sodipodi-0.dtd"
   xmlns:inkscape="http://www.inkscape.org/namespaces/inkscape"
   width="540"
   height="1052.36"
   id="svg2"
   version="1.1"
   inkscape:version="0.48.4 r9939"
   sodipodi:docname="tutorial.svg">
  <defs
     id="defs4" />
  <sodipodi:namedview
     id="base"
     pagecolor="#ffffff"
     bordercolor="#666666"
     borderopacity="1.0"
     inkscape:pageopacity="0.0"
     inkscape:pageshadow="2"
     inkscape:zoom="1.6314334"
     inkscape:cx="270"
     inkscape:cy="790.46859"
     inkscape:document-units="px"
     inkscape:current-layer="g3043"
     showgrid="false"
     inkscape:window-width="1301"
     inkscape:window-height="744"
     inkscape:window-x="65"
     inkscape:window-y="24"
     inkscape:window-maximized="1" />
  <metadata
     id="metadata7">
    <rdf:RDF>
      <cc:Work
         rdf:about="">
        <dc:format>image/svg+xml</dc:format>
        <dc:type
           rdf:resource="http://purl.org/dc/dcmitype/StillImage" />
      </cc:Work>
    </rdf:RDF>
  </metadata>
  <g
     inkscape:label="Layer 1"
     inkscape:groupmode="layer"
     id="layer1"
     transform="translate(0,-0.00218262)">
    <g
       id="g3043"
       transform="translate(0,-64.147283)">
      <path
         transform="translate(0,0.00218262)"
         d="m 486.30576,168.60114 c 0,41.41195 -33.57102,74.98297 -74.98298,74.98297 -41.41195,0 -74.98297,-33.57102 -74.98297,-74.98297 0,-41.41196 33.57102,-74.982976 74.98297,-74.982976 41.41196,0 74.98298,33.571016 74.98298,74.982976 z"
         sodipodi:ry="74.982971"
         sodipodi:rx="74.982971"
         sodipodi:cy="168.60114"
         sodipodi:cx="411.32278"
         id="path2985"
         style="color:#000000;fill:#776e65;fill-opacity:1;fill-rule:nonzero;stroke:none;stroke-width:5;marker:none;visibility:visible;display:inline;overflow:visible;enable-background:accumulate"
         sodipodi:type="arc" />
      <path
         transform="translate(0,0.00218262)"
         inkscape:connector-curvature="0"
         d="m 420.04482,228.00384 c 1.1128,8.14319 1.59208,16.35998 2.27573,24.54731 1.46925,15.48026 2.71924,30.97667 3.57011,46.50339 0.76384,15.78866 0.92846,31.59713 1.02993,47.40125 0.01,6.79699 0.18136,13.59307 -0.23357,20.38072 -0.56988,9.17671 -13.54771,8.37078 -12.97783,-0.80593 l 0,0 c 0.41039,-6.49046 0.19433,-12.99188 0.20884,-19.49139 -0.0999,-15.59497 -0.26022,-31.19425 -1.01077,-46.77409 -0.84183,-15.403 -2.08885,-30.77521 -3.54446,-46.1321 -0.66867,-8.00983 -1.13144,-16.04989 -2.2204,-24.01636 -1.14042,-9.12339 11.762,-10.73619 12.90242,-1.6128 z"
         id="path2999"
         style="color:#000000;fill:#776e65;fill-opacity:1;fill-rule:nonzero;stroke:none;stroke-width:5;marker:none;visibility:visible;display:inline;overflow:visible;enable-background:accumulate" />
      <path
         transform="translate(0,0.00218262)"
         inkscape:connector-curvature="0"
         d="m 424.79097,369.95075 c -1.04647,7.35213 -2.4504,14.64317 -3.65232,21.96953 -2.13105,12.91453 -2.93234,25.99394 -3.93522,39.03008 -0.91222,9.61954 -1.66326,19.27413 -3.39724,28.78771 -1.65569,9.04408 -14.44596,6.70257 -12.79026,-2.34151 l 0,0 c 1.66784,-9.0655 2.32812,-18.27781 3.22298,-27.44361 1.03159,-13.4082 1.86892,-26.85926 4.06901,-40.14117 1.2635,-7.67631 2.6685,-15.32798 3.86845,-23.01468 2.22997,-8.91987 14.84456,-5.76622 12.6146,3.15365 z"
         id="path3009"
         style="color:#000000;fill:#776e65;fill-opacity:1;fill-rule:nonzero;stroke:none;stroke-width:5;marker:none;visibility:visible;display:inline;overflow:visible;enable-background:accumulate" />
      <path
         transform="translate(0,0.00218262)"
         inkscape:connector-curvature="0"
         d="m 429.59067,370.36022 c 1.80654,7.1184 4.06065,14.12473 6.04848,21.20033 3.50356,13.48288 5.98403,27.17677 8.16404,40.92456 1.27414,9.96631 2.69206,19.91509 3.93823,29.88566 0.10366,0.90813 0.20733,1.81627 0.311,2.7244 1.04153,9.13521 -11.8776,10.60816 -12.91913,1.47296 l 0,0 c -0.0981,-0.86184 -0.19627,-1.72368 -0.29441,-2.58552 -1.22728,-9.8291 -2.62881,-19.63606 -3.87816,-29.46168 -2.09959,-13.24899 -4.47899,-26.44617 -7.83982,-39.44374 -0.58581,-2.08545 -2.21781,-7.93524 -2.89865,-10.21834 -1.2888,-4.32175 -2.88242,-8.58302 -3.55488,-13.06271 -1.01535,-9.13815 11.90795,-10.57407 12.9233,-1.43592 z"
         id="path3011"
         style="color:#000000;fill:#776e65;fill-opacity:1;fill-rule:nonzero;stroke:none;stroke-width:5;marker:none;visibility:visible;display:inline;overflow:visible;enable-background:accumulate" />
      <path
         transform="translate(0,0.00218262)"
         inkscape:connector-curvature="0"
         d="m 419.99133,246.14734 c -0.18623,6.89347 -1.52485,13.66628 -3.0004,20.37903 -2.15989,9.04601 -4.94635,17.91851 -7.70791,26.7931 -1.71947,5.17156 -3.32809,10.38737 -5.26701,15.48275 -0.86655,2.47083 -1.80218,4.893 -3.14433,7.14545 -2.83447,4.25348 -6.49506,5.22266 -11.30005,5.79581 -6.36073,0.7374 -12.76787,0.89258 -19.1636,1.03065 -8.83757,0.22139 -17.67971,-0.0285 -26.50511,-0.49839 -5.67702,-0.33963 -11.35033,-0.74422 -17.03187,-1.00328 -9.1848,-0.41976 -8.59117,-13.40903 0.59363,-12.98927 l 0,0 c 5.71559,0.26177 11.42325,0.6635 17.13417,1.00836 8.50029,0.45888 17.01755,0.69345 25.52972,0.48276 6.02242,-0.1289 12.05667,-0.2639 18.04625,-0.95842 0.41177,-0.0355 0.82337,-0.073 1.2353,-0.10648 1.31183,-0.10668 -0.12794,0.23994 0.19639,0.62442 0.0801,0.095 0.16157,-0.18888 0.24235,-0.28333 1.08149,-1.26848 1.21053,-3.47207 2.02356,-4.89659 1.86211,-4.82778 3.33895,-9.79819 4.99499,-14.69787 2.65281,-8.52509 5.33591,-17.04585 7.42619,-25.73171 1.28379,-5.79229 2.4707,-11.63021 2.6949,-17.57699 0,-9.19438 13.00283,-9.19438 13.00283,0 z"
         id="path3033"
         style="color:#000000;fill:#776e65;fill-opacity:1;fill-rule:nonzero;stroke:none;stroke-width:5;marker:none;visibility:visible;display:inline;overflow:visible;enable-background:accumulate" />
      <path
         inkscape:connector-curvature="0"
         d="m 294.58974,294.29513 c 4.66035,0 9.32069,0 13.98103,0 6.41104,0.1905 12.81614,0.52392 19.22736,0.71258 3.55876,0.0965 7.11859,0.14279 10.67855,0.15795 0.35372,7e-4 0.70744,10e-4 1.06117,0.002 9.19437,0.0183 9.16841,13.02115 -0.026,13.0028 l 0,0 c -0.36362,-7.3e-4 -0.72725,-10e-4 -1.09088,-0.002 -3.66909,-0.0158 -7.33805,-0.0636 -11.0059,-0.16348 -6.28359,-0.18543 -12.56156,-0.50127 -18.84434,-0.70693 -4.66034,0 -9.32068,0 -13.98103,0 -9.19439,0 -9.19439,-13.00283 0,-13.00283 z"
         id="path3041"
         style="color:#000000;fill:#0000ff;fill-opacity:1;fill-rule:nonzero;stroke:none;stroke-width:5;marker:none;visibility:visible;display:inline;overflow:visible;enable-background:accumulate"
         transform="translate(0,0.00218262)" />
    </g>
    <g
       id="g3868">
      <path
         transform="translate(0,0.00218262)"
         inkscape:connector-curvature="0"
         d="m 33.006859,395.28376 c 20.598787,-0.0881 41.195196,0.0944 61.792174,0.35072 59.016457,0.87949 118.022467,2.27183 177.029927,3.59993 45.48627,1.00476 90.97969,1.64498 136.47527,2.01803 14.46873,0.21292 28.94162,-0.0173 43.40932,0.23019 12.60256,0.26475 25.20616,0.64036 37.81234,0.53809 4.91284,0.0274 9.8108,-0.35203 14.69714,-0.81293 3.66154,-0.34491 4.14932,4.8333 0.48777,5.1782 l 0,0 c -5.03472,0.47363 -10.08147,0.86087 -15.14321,0.83569 -12.64989,0.10025 -25.29713,-0.27037 -37.94336,-0.53869 -14.45209,-0.24921 -28.90953,-0.0144 -43.36265,-0.2296 -45.52038,-0.37328 -91.03859,-1.01383 -136.54966,-2.01916 -58.99003,-1.32772 -117.9786,-2.71969 -176.977628,-3.59902 -20.575399,-0.25618 -41.150227,-0.43835 -61.727433,-0.35032 -3.677755,0 -3.677755,-5.20113 0,-5.20113 z"
         id="path3065"
         style="color:#000000;fill:#776e65;fill-opacity:1;fill-rule:nonzero;stroke:none;stroke-width:5;marker:none;visibility:visible;display:inline;overflow:visible;enable-background:accumulate" />
      <path
         transform="translate(0,0.00218262)"
         inkscape:connector-curvature="0"
         d="m 315.53528,244.20625 c -0.0111,2.71525 0.0612,5.42942 -0.10937,8.1401 -0.19619,2.23239 -0.0985,1.11903 -0.29311,3.34008 -0.32103,3.66372 -5.50231,3.20971 -5.18128,-0.45401 l 0,0 c 0.19159,-2.18648 0.0967,-1.1099 0.28463,-3.22975 0.18241,-2.59445 0.0678,-5.19689 0.098,-7.79642 0,-3.67775 5.20113,-3.67775 5.20113,0 z"
         id="path3067"
         style="color:#000000;fill:#776e65;fill-opacity:1;fill-rule:nonzero;stroke:none;stroke-width:5;marker:none;visibility:visible;display:inline;overflow:visible;enable-background:accumulate" />
      <path
         transform="translate(0,0.00218262)"
         inkscape:connector-curvature="0"
         d="m 313.80157,272.81247 c 0,3.12394 0,6.24788 0,9.37182 0,3.67775 -5.20113,3.67775 -5.20113,0 l 0,0 c 0,-3.12394 0,-6.24788 0,-9.37182 0,-3.67775 5.20113,-3.67775 5.20113,0 z"
         id="path3069"
         style="color:#000000;fill:#776e65;fill-opacity:1;fill-rule:nonzero;stroke:none;stroke-width:5;marker:none;visibility:visible;display:inline;overflow:visible;enable-background:accumulate" />
      <path
         transform="translate(0,0.00218262)"
         inkscape:connector-curvature="0"
         d="m 312.93472,308.45723 c 0,2.99693 0,5.99386 0,8.99079 0,0.002 0,2.9661 0,2.97913 0,3.67776 -5.20113,3.67776 -5.20113,0 l 0,0 c 0,-0.013 0,-2.97697 0,-2.97913 0,-2.99693 0,-5.99386 0,-8.99079 0,-3.67776 5.20113,-3.67776 5.20113,0 z"
         id="path3071"
         style="color:#000000;fill:#776e65;fill-opacity:1;fill-rule:nonzero;stroke:none;stroke-width:5;marker:none;visibility:visible;display:inline;overflow:visible;enable-background:accumulate" />
      <path
         transform="translate(0,0.00218262)"
         inkscape:connector-curvature="0"
         d="m 311.92879,337.38729 c -0.37707,2.28687 -0.52788,4.6016 -0.63298,6.91432 -0.0493,1.30236 -0.0661,2.60556 -0.0835,3.90863 -0.0494,3.67742 -5.25007,3.60755 -5.20066,-0.0699 l 0,0 c 0.0183,-1.35913 0.0361,-2.71839 0.0885,-4.07676 0.11626,-2.51938 0.28515,-5.04049 0.69829,-7.53138 0.60462,-3.62771 5.73499,-2.77265 5.13037,0.85507 z"
         id="path3073"
         style="color:#000000;fill:#776e65;fill-opacity:1;fill-rule:nonzero;stroke:none;stroke-width:5;marker:none;visibility:visible;display:inline;overflow:visible;enable-background:accumulate" />
      <path
         transform="translate(0,0.00218262)"
         inkscape:connector-curvature="0"
         d="m 311.20101,363.0691 c 0,0.35901 0,2.22918 0,2.47627 0,3.67775 -5.20113,3.67775 -5.20113,0 l 0,0 c 0,-0.24709 0,-2.11726 0,-2.47627 0,-3.67775 5.20113,-3.67775 5.20113,0 z"
         id="path3075"
         style="color:#000000;fill:#776e65;fill-opacity:1;fill-rule:nonzero;stroke:none;stroke-width:5;marker:none;visibility:visible;display:inline;overflow:visible;enable-background:accumulate" />
      <path
         transform="translate(0,0.00218262)"
         inkscape:connector-curvature="0"
         d="m 311.20101,386.57788 c 0.14909,3.42898 -0.23899,6.82005 -0.80493,10.19334 -0.0837,0.50344 -0.16734,1.00688 -0.25101,1.51032 -0.60297,3.62799 -5.73372,2.77525 -5.13075,-0.85273 l 0,0 c 0.0842,-0.50645 0.16835,-1.01289 0.25252,-1.51933 0.51974,-3.08907 0.88359,-6.19017 0.73304,-9.3316 0,-3.67775 5.20113,-3.67775 5.20113,0 z"
         id="path3077"
         style="color:#000000;fill:#776e65;fill-opacity:1;fill-rule:nonzero;stroke:none;stroke-width:5;marker:none;visibility:visible;display:inline;overflow:visible;enable-background:accumulate" />
      <path
         transform="translate(0,0.00218262)"
         inkscape:connector-curvature="0"
         d="m 313.55686,387.48207 c 2.26185,-0.0973 4.50661,0.17885 6.70277,0.70279 2.60479,0.6447 3.64194,2.66546 3.94111,5.14114 0.0699,0.88873 0.0627,1.7804 0.062,2.67098 -0.004,3.67775 -5.2055,3.67156 -5.20113,-0.006 l 0,0 c 0.001,-0.70515 0.008,-1.41094 -0.0329,-2.11532 -0.0153,-0.20723 -0.19668,-0.49996 -0.029,-0.6227 0.0146,-0.0107 1.2254,0.51924 0.004,-0.0207 -1.77479,-0.47246 -3.61531,-0.60976 -5.44692,-0.5489 -3.67775,0 -3.67775,-5.20113 0,-5.20113 z"
         id="path3079"
         style="color:#000000;fill:#776e65;fill-opacity:1;fill-rule:nonzero;stroke:none;stroke-width:5;marker:none;visibility:visible;display:inline;overflow:visible;enable-background:accumulate" />
    </g>
  </g>
</svg>
